<svg xmlns="http://www.w3.org/2000/svg" xmlns:xlink="http://www.w3.org/1999/xlink" viewBox="0 0 47 47" xmlns:v="https://vecta.io/nano"><defs><symbol id="A" viewBox="0 0 25.41 38.8"><path d="M25.41 10.31a8.9 8.9 0 0 0-4.47-8A17.1 17.1 0 0 0 11.7 0a21 21 0 0 0-4.08.44 20 20 0 0 0-4.45 1.4q-3 1.4-3 3V7.7c0 1 .42 1.44 1.25 1.44a1.07 1.07 0 0 0 1.14-.67l.27-1.41A5.57 5.57 0 0 1 6.45 3.5a13.63 13.63 0 0 1 5.25-1 12.46 12.46 0 0 1 6 1.37 5.25 5.25 0 0 1 3.16 4.78c0 2.48-1.81 4.64-5.41 6.49L5.39 20Q0 23.25 0 28.19a9.32 9.32 0 0 0 4.08 8 14.68 14.68 0 0 0 8.86 2.66 24.23 24.23 0 0 0 6-1q4.53-1.21 4.53-2.86v-3.47c0-.95-.42-1.43-1.26-1.43-.61 0-1 .23-1.1.69a13.55 13.55 0 0 0-.29 1.38 4.24 4.24 0 0 1-.8 1.43c-1.5 1.84-3.87 2.75-7.09 2.75a9.84 9.84 0 0 1-5.54-1.64A5.5 5.5 0 0 1 4.52 30q0-4.06 5.4-6.86L20 18.47q5.4-3.19 5.41-8.16z" fill="#b17a61"/></symbol><symbol id="B" viewBox="0 0 26.3 38.42"><path d="M26.3 28.81a12.34 12.34 0 0 0-6.52-11.25 8.85 8.85 0 0 0-4.33-1.44h-.53a6.14 6.14 0 0 0-1.58.13.78.78 0 0 0-.67.78c0 .29.55.63 1.64 1l2.17.72q4.9 2.41 4.91 8.91a7.25 7.25 0 0 1-2.59 5.64 8.64 8.64 0 0 1-5.94 2.31c-2.17 0-3.25-.57-3.25-1.72l-.11-4.7q-.36-7.05-.36-9.74 0-2.06.16-6.2.16-4.14.17-6.2a3.56 3.56 0 0 1 1.42-3c.2-.15 1.1-.63 2.72-1.43 1-.5 1.44-1 1.44-1.66S14.6 0 13.7 0a23.51 23.51 0 0 0-3 .28 23.66 23.66 0 0 1-3 .28A23.79 23.79 0 0 1 5.08.44L1.34.06C.45.06 0 .39 0 1.05c0 .41.4.86 1.2 1.34A14.45 14.45 0 0 1 3.45 4a4.11 4.11 0 0 1 1.19 3l.13 5.77.14 5.77-.14 5.87q-.16 4.18-.18 5.84a7 7 0 0 1-1.11 4.13 5.42 5.42 0 0 1-2 1.58q-1 .54-1 .9c0 1 .62 1.58 1.86 1.58a18.93 18.93 0 0 0 2.94-.34 18.62 18.62 0 0 1 2.79-.33l3.63.13 3.64.12A12.5 12.5 0 0 0 23 35.77a8.24 8.24 0 0 0 3.3-6.96z" fill="#b17a61"/></symbol><symbol id="C" viewBox="0 0 39.27 39.38"><path d="M39.27 1.62C39.27.54 39 0 38.47 0a18.7 18.7 0 0 0-2.31.2l-4.35.41a29.83 29.83 0 0 1-3.33-.38A14 14 0 0 0 26.23 0q-2 0-2 1.86 0 .64 1.14 1.2a7.13 7.13 0 0 1 2.09 1.38 5 5 0 0 1 1.11 3.47 10.35 10.35 0 0 1-.9 4.21c-.78 1.71-1.81 2.57-3.07 2.57l-1.85.06-1.88.08c-.43 0-1.09 0-1.94-.05l-1.95-.09c-1.75 0-3.3-1.65-4.64-4.88A16.27 16.27 0 0 1 10.84 5c0-.76.76-1.37 2.27-1.81s2.28-1 2.28-1.54c0-1-.64-1.54-1.92-1.54a20.5 20.5 0 0 0-2.31.15L7 .48a29.2 29.2 0 0 1-4.25-.4h-.7C.68.08 0 .52 0 1.39S.68 3 2.05 3.27a10.29 10.29 0 0 1 3.29 1 14.21 14.21 0 0 1 4 5.92l4.26 10.54q2.49 6.18 4.3 11a40.67 40.67 0 0 0 2.36 5.51c.82 1.43 1.61 2.15 2.37 2.15.92 0 1.6-.77 2-2.29q.34-1.43 1.11-4.23l2.56-8q1.32-4.47 2.34-8.33.56-2.25 1.69-6.78c.67-2.45 1.47-4.08 2.42-4.88a14.89 14.89 0 0 1 2.78-1.37c1.19-.51 1.74-1.15 1.74-1.89zM25.2 20a32.06 32.06 0 0 1-1.25 5q-1.57 5.24-2.95 5.23-1 0-3-5.93a23.71 23.71 0 0 1-1.36-5.08c0-1 .54-1.53 1.62-1.7h2.81 1.13a4.87 4.87 0 0 1 2.36.34c.44.27.64.98.64 2.14z" fill="#b17a61"/></symbol><symbol id="D" viewBox="0 0 34.27 38.09"><path d="M34.27 7.19a22.19 22.19 0 0 0-.41-5.11c-.36-1.31-1-2-1.92-2l-5.13.07q-8 .2-10.25.2Q12.9.39 10.08.3L1.31 0a1.48 1.48 0 0 0-.86.33.93.93 0 0 0-.45.73 3.4 3.4 0 0 0 .81 1.66A31.66 31.66 0 0 0 3 5.33l3.09 3.4c1 1.12 3.55 4.49 7.77 10.11l7.28 9.77q.9 1.18 2.62 3.7a5.79 5.79 0 0 1 .91 2c0 .48-.53.73-1.58.73h-6.22c-.84 0-2 0-3.45-.06-1.68-.08-2.83-.11-3.46-.11a6.36 6.36 0 0 1-4.64-1.74 13.77 13.77 0 0 1-2-3.2c-.61-1.15-1.21-1.73-1.81-1.73-.41 0-.61.32-.61 1v.46a21.06 21.06 0 0 0 .57 5.08q.88 3.39 2.68 3.39 2 0 8.64-.31c2.22-.1 4.2-.16 5.95-.16 2.05 0 4 0 5.77.1L33 38a1 1 0 0 0 .62-.33.87.87 0 0 0 .36-.61c0-.86-.63-1.89-1.89-3.1-.69-.62-1.72-1.58-3.08-2.87a66 66 0 0 1-5.14-6.49l-3.36-4.54q-1.82-2.46-4.37-5.77L12 9c-2-2.69-3-4.34-3-5s.44-1 1.34-1c1.57 0 4.17 0 7.8-.13l7.12-.08c2.35 0 4 .72 5.1 2.16a14 14 0 0 1 1.55 4c.36 1.45.89 2.17 1.57 2.17s.79-1.28.79-3.93z" fill="#b17a61"/></symbol><symbol id="E" viewBox="0 0 13.5 37.98"><path d="M13.5 36.38q0-1-1.38-1.29a3.66 3.66 0 0 1-2.39-1.67 4.84 4.84 0 0 1-.87-2.83V9.09q0-5.05 2.86-6A1.54 1.54 0 0 0 13 1.58 1.41 1.41 0 0 0 11.39 0a20.7 20.7 0 0 0-2.55.25 20.1 20.1 0 0 1-2.5.25A20.4 20.4 0 0 1 3.8.25 20.28 20.28 0 0 0 1.27 0C.42 0 0 .45 0 1.34 0 1.7.7 2.23 2.11 3a4.09 4.09 0 0 1 2.12 2.77 17.3 17.3 0 0 1 .3 3.84v20.92q0 3.53-2.28 4.59c-1.34.62-2 1.15-2 1.58-.02.85.61 1.3 1.86 1.3a12.22 12.22 0 0 0 1.72-.12l2.89-.25c.62 0 1.55.06 2.78.19l2.77.18c.82 0 1.23-.55 1.23-1.62z" fill="#b17a61"/></symbol><symbol id="F" viewBox="0 0 39.52 39.47"><path d="M39.52 20.55a20.26 20.26 0 0 0-5.66-14.38A18.56 18.56 0 0 0 19.78 0a19.41 19.41 0 0 0-13.9 5.47A18.11 18.11 0 0 0 0 19.14a19.62 19.62 0 0 0 5.91 14.41 19.63 19.63 0 0 0 14.42 5.92 18.66 18.66 0 0 0 13.48-5.56 18 18 0 0 0 5.71-13.36zm-5.43-2a21.44 21.44 0 0 1-3.68 12.56A12.64 12.64 0 0 1 19.58 37 12.23 12.23 0 0 1 9 31.67a19.35 19.35 0 0 1-3.28-11.45 22.05 22.05 0 0 1 1.47-7.92 16.84 16.84 0 0 1 4.34-6.72 11.63 11.63 0 0 1 8.06-3.06 13.35 13.35 0 0 1 10.74 4.76 16.92 16.92 0 0 1 3.76 11.3z" fill="#b17a61"/></symbol><symbol id="G" viewBox="0 0 239.68 149.26"><path d="M74.37 9.46a13.55 13.55 0 0 0 7.18.72c35.31-6.11 77-8.27 110.71 18.55a3.11 3.11 0 0 1-3.83 4.9c-28.24-22.38-61.64-23.45-93.11-19.27a2.57 2.57 0 0 0-2 1.92 2.33 2.33 0 0 0 1.2 2.63c17.79 10.65 34.07 27.09 49.15 44.52a12.78 12.78 0 0 0 7.78 4.19l2 .24c51.11 6.94 85.33 53.86 86.17 71.81.36 6.7-3.71 8.38-5.5 8.86-24.42 5.74-47.75-23.1-74.8-56.37a546.76 546.76 0 0 0-12.66-15.56 10.56 10.56 0 0 0-7.54-3.83c-29.68-1.8-48.83 5.62-53.5 20.94-4.79 15.68 7.54 37.46 26.09 46.44a3.1 3.1 0 1 1-2.63 5.62C87.42 135.36 74 110.71 79.64 91.92c3.11-10.53 14.24-26.33 52.78-25.74a2.35 2.35 0 0 0 2.15-1.43 2.19 2.19 0 0 0-.36-2.52c-15.92-17.94-33.27-34.1-51.94-42.6l-1.67-.72a11.1 11.1 0 0 0-7.07-.84C68.63 19 63.84 20 59.29 21c-26.45 5.5-47.39 9.81-57.21-.6a6.79 6.79 0 0 1-.72-9C4.12 6.82 13.57 0 31.65 0a119.13 119.13 0 0 1 42.72 9.46zm-53.14 11A180 180 0 0 0 58 14.84c5.87-1.43 4.43-3 3.36-3.35C27.94 1 12.86 9.93 9.51 11.85c-2.64 1.56-3 3-3 4.07 0 3.08 8.14 4.54 14.72 4.54zM227.92 142.9a21.57 21.57 0 0 0 4.79-.48c.72-.24.72-1.43.72-2.51-.6-12.69-28.37-54.93-73.84-64.63a2.58 2.58 0 0 0-2.76 1.2 2.36 2.36 0 0 0 .24 2.87l7.18 8.86c23.75 29.2 44.4 54.69 63.67 54.69z"/></symbol><symbol id="H" viewBox="0 0 104.22 45.14"><path d="M103.59 31a3.17 3.17 0 0 1-2.16 1.07 3 3 0 0 1-2.27-.59c-.48-.36-46.56-37-85-21.19C6.4 13.52 6 17.71 6.29 20a1.08 1.08 0 0 0 .47 1 1.13 1.13 0 0 0 1.08.12 37.74 37.74 0 0 1 22.26 5.69c5.74 3.71 6.7 7.78 6.35 10.41a8.36 8.36 0 0 1-8.14 7.9C18.85 45.6 3.05 34.35.42 22.38-.66 18-.54 9.57 11.79 4.55A60.94 60.94 0 0 1 35.25 0c34.34 0 66.18 25.25 67.86 26.57a2.91 2.91 0 0 1 1.07 2 3.45 3.45 0 0 1-.59 2.43zm-93-2.64C15.26 34.83 23 39.14 28 38.78c1.31 0 2-.48 2.27-2.28.12-1.2-1.2-2.87-3.59-4.43-4.96-3.23-19.68-8.49-16.09-3.71z"/></symbol><symbol id="I" viewBox="0 0 106.33 151.4"><path d="M103 66.12l-16.75-1.08a3 3 0 0 0-2.52 1.2 2.83 2.83 0 0 0-.26 2.76c10.77 25.61 18.07 52.3 11.25 68a22.76 22.76 0 0 1-18 13.53c-34.54 6.31-63.62-21.7-73.32-51.26-7.3-22-2.63-40.81 12-48a3.13 3.13 0 1 1 2.75 5.63c-14 6.94-13.76 25.37-8.74 40.45 8.86 26.92 35.07 52.66 66.31 46.91a16.55 16.55 0 0 0 13.28-9.8c6.59-15-2.51-42.61-13.76-68.82-.72-1.56-2.4-1.68-3.47-1.68a151.11 151.11 0 0 1-28.4-4.06 3.14 3.14 0 1 1 2.52-5.75 130.87 130.87 0 0 0 20.58 3 2.86 2.86 0 0 0 2.88-4.07C56.54 26.86 42.9 5.2 42.65 4.72a3.12 3.12 0 0 1 5.27-3.35A515.48 515.48 0 0 1 78 56.66a3.15 3.15 0 0 0 2.39 1.68l23 1.56a2.74 2.74 0 0 1 2.1 1.1 3.17 3.17 0 0 1 .84 2.28 3.37 3.37 0 0 1-3.33 2.84z"/></symbol><symbol id="J" viewBox="0 0 139 32.39"><path d="M137.85 29.2a3.2 3.2 0 0 1-4.43-.47c-.24-.36-26.93-32.92-51.47-18.68a19.25 19.25 0 0 0-7.06 9c-2.27 4.55-5 10.06-12.68 8.86-4-.6-10.06-5.63-15.2-11.37a1 1 0 0 0-1.08-.36.9.9 0 0 0-.72.84 16.27 16.27 0 0 1-9.57 12.09c-4.07 1.05-10.64 2.25-24.42-11.4-.72-.59-1.67-.35-1.55.6 0 .48 2.39 10.17 2.39 10.17a3.33 3.33 0 0 1-2.39 3.84 3.34 3.34 0 0 1-3.84-2.4L.09 4.67a3.22 3.22 0 0 1 1.67-3.59A3.11 3.11 0 0 1 5.6 2c16 20.1 23.93 22 27.16 21.54s7.54-7.06 7.07-17.47A3.09 3.09 0 0 1 42.1 3a3 3 0 0 1 3.59 1.32c4.91 8.38 14.48 16.87 17.47 17.35s3.71-.59 6.11-5.38a23.65 23.65 0 0 1 9.45-11.62A32.64 32.64 0 0 1 95.36 0c22.86 0 42 23.46 43 24.78a3.19 3.19 0 0 1-.51 4.42z"/></symbol></defs><circle cx="23.5" cy="23.5" r="23.5" fill="#f7f2ef"/><path d="M36.86,20.49l-.76,1.3-.75-1.3Z" fill="#b17a61"/><use width="25.41" height="38.8" transform="matrix(.05 0 0 -.05 28.43 24.08)" xlink:href="#A"/><use width="26.3" height="38.42" transform="matrix(.05 0 0 -.05 29.98 24.06)" xlink:href="#B"/><use width="39.27" height="39.38" transform="matrix(.05 0 0 -.05 31.5 24.05)" xlink:href="#C"/><use width="34.27" height="38.09" transform="matrix(.05 0 0 -.05 33.67 24.05)" xlink:href="#D"/><use width="13.5" height="37.98" transform="matrix(.05 0 0 -.05 35.77 24.05)" xlink:href="#E"/><use width="39.52" height="39.47" transform="matrix(.05 0 0 -.05 36.8 24.09)" xlink:href="#F"/><use width="239.68" height="149.26" transform="matrix(.05 0 0 -.05 1 26.57)" xlink:href="#G"/><use width="104.22" height="45.14" transform="matrix(.05 0 0 -.05 11.08 26.54)" xlink:href="#H"/><use width="106.33" height="151.4" transform="matrix(.05 0 0 -.05 18.42 26.33)" xlink:href="#I"/><use width="139" height="32.39" transform="matrix(.05 0 0 -.05 27.96 26.48)" xlink:href="#J"/><use width="104.22" height="45.14" transform="matrix(.05 0 0 -.05 23.3 26.54)" xlink:href="#H"/><use width="139" height="32.39" transform="matrix(.05 0 0 -.05 34.29 26.48)" xlink:href="#J"/><use width="104.22" height="45.14" transform="matrix(.05 0 0 -.05 40.77 26.54)" xlink:href="#H"/></svg>